<svg id="Ebene_1" data-name="Ebene 1" xmlns="http://www.w3.org/2000/svg" viewBox="0 0 1998.18 2008.65"><defs><style>.cls-1{fill:#403f54;}.cls-2{fill:#413f55;}.cls-3{fill:#fefefe;}</style></defs><title>Zeichenfläche 1</title><path class="cls-1" d="M1001.48,2008.6H573.61c-209.31,0-376-166.91-376.09-376.4q0-140.46.19-280.9c0-8.13-1.6-11.43-10.27-13.36C67.59,1311.41-9.79,1205.36,1,1083.26c3.61-40.94,43.07-64.29,76.52-44.85,17,9.87,25.92,24.61,24.53,44.94-4.91,72.79,25.43,126.09,84.4,149.46,8.69,3.45,11.35,2.92,11.24-7.49-.43-69,0-137.94-.41-206.91,0-8,1.87-8,8.61-6a806.31,806.31,0,0,0,89.61,20.74c35.07,6,69.85,13.64,104.87,19.37,37,6,74.21,11,111.42,15.79,33.9,4.32,67.87,8.31,101.89,11.23,47.44,4.14,94.93,7.88,142.46,10.54,93.63,5.25,187.4,10.47,281.12,9.5,92.18-.94,184.35-5.75,276.41-11,63-3.58,126-9.37,188.63-16.86,57.23-6.72,114.33-14.81,171.17-24.92,43.07-7.66,85.88-15.7,128.33-26,7.6-1.87,4,4.69,4,6.9.25,65.22.45,130.45,0,195.67,0,10.9,3,10.81,11.24,7,57-26.38,84.55-78.65,78.84-149.42-1.52-18.72,7.92-32.92,23.28-42.07,14.72-8.81,30.76-10.59,47.06-2.4,34.36,17.25,32.88,49.17,31.42,79.74-5.19,108.61-76.67,194.75-182,220.47-7.49,1.87-9.74,4.58-9.72,12.34q.45,142.32.19,284.64c.25,206.79-167.17,374.64-374,374.89h-.84Q1216.35,2008.71,1001.48,2008.6Z"/><path class="cls-2" d="M1245.15,687.81c147.38,9.36,294.33,20.15,439.42,49.16,67.29,13.46,120.12,74.28,121.43,143.18.37,20.28-.81,40.64.46,60.84.62,10.06-4.38,13.26-11.74,14.74-58.52,11.82-117.06,23.39-176,32.75-66.89,10.58-134.21,17.27-201.4,24.95-47.59,5.43-95.62,7.49-143.51,9.62-89.62,3.75-179.33,9.25-269,8.94-92.45-.32-185-5.62-277.32-10.83-63-3.57-125.9-9.74-188.64-16.72-53.3-5.94-106.44-13.75-159.36-22.47-44-7.29-87.61-16.86-131.26-26.05-15.9-3.35-31.37-8.67-47.13-12.68-2.78-.71-3.62-1.52-3.54-4.08,1.08-35.06-4.1-70.6,8.84-104.7,23-60.64,69.42-89.78,131.08-101.39C461.08,709.85,585.8,699.36,711,692.28c34.59-1.87,69.29-2.86,103.8-4.47,7.1-.34,8.84.9,5.62,8.14-13.6,30.7-37.64,45.12-70.38,46-19.36.49-38.46-.49-52.43,17.51-15,19.46-13.71,40.88-5.77,60.92,6.91,17.43,24.49,25.3,42.85,26.93,76.78,6.77,135.92-22.57,176-88.79a142.31,142.31,0,0,0,20.86-62.94c.62-7.6,2.62-11.12,11.54-11,39.32.6,78.65.41,118,.15,6,0,8.41,1.87,8.88,7.62,6.48,77.32,82,156.76,176.65,153,21.7-.86,42.38-1.88,57.83-19.48,14.77-16.85,12.62-37.45,7-55.69-5.13-16.86-18.56-29.65-38.6-30-24.62-.36-49-.4-69.88-16.86-10.53-8.26-16.6-19.16-22-30.79-3.07-6.64,2.3-4.73,5.15-4.75C1205.86,687.75,1225.58,687.81,1245.15,687.81Z"/><path class="cls-2" d="M1253.05,826.59c-89.46-.93-154.72-59.92-164-142.85-4.83-43.07-28.86-75.48-65.09-82.66C962.84,589,918.09,632.77,914,678.69,905.73,770.82,836.42,832,744.56,828.75c-13.53-.47-27.94-4.22-34.83-17.55-7.38-14.29-6.2-28.93,5.83-41.2,8.29-8.52,19-10.54,30-9.08,50.17,6.81,95.17-35.08,99.25-79.67,8.63-94.92,82.4-157.51,177.51-149.12,56.63,5,96.09,39.33,120.66,90.27,9.36,19.49,13.29,40.48,14.83,61.94,3.07,43.07,49.87,78.51,97.68,74.07,31.14-2.89,50.47,22.38,36.48,50.15C1283.2,825.54,1264.38,826.14,1253.05,826.59Z"/><path class="cls-2" d="M740.89,344.68c-2,44.57-19.3,88.57-58.69,122.26-16.66,14.26-38.14,13-51.51-1.87-15.3-17-14.48-36.57,2.23-53.24,44-43.82,44.36-101.93,1-147.06a175.4,175.4,0,0,1,4.68-248q2.79-2.68,5.69-5.24C661-3.13,685.18-3.23,698.35,11.3c16.16,17.83,15.11,37.27-3,54.65-46.61,44.85-48,102.6-3.88,149.72C723.85,250.16,740.39,291,740.89,344.68Z"/><path class="cls-2" d="M1005,337c-.54-27.79-11.61-51.56-31.84-72.36A174.85,174.85,0,0,1,976.8,17.43q3.09-3,6.32-5.85c16.63-14.66,40.92-14.86,54.07-.43,16.2,17.78,15.2,37.46-2.75,54.65-47,45.13-48.28,102.68-3.43,150.39,65.07,69.29,64.85,175.77-.49,242.87-24.34,25.08-57,22.62-68.56-5.34-6.29-15.2-3.29-29.14,8.54-40.43C992.08,392.73,1004.38,368.14,1005,337Z"/><path class="cls-2" d="M1331.55,40.42c-2.51,7.12-4.1,16.13-11.53,23-50.08,46.22-52,104-5.62,153.56,64.4,68.67,63.88,175.45-1.2,242.19-24.34,25-57,22.59-68.54-5.41-6.59-16-2.32-29.83,9.81-41.85,37.89-37.57,44.22-90,15.29-130.85-7.7-10.88-17.93-19.92-26.22-30.45C1186,177.2,1196.48,70.69,1267.36,10.54c12.17-10.34,26.83-14,42.13-6.75C1324.14,10.59,1330.62,23.12,1331.55,40.42Z"/><path class="cls-3" d="M1069.06,1758.83c-22.17,32-43.82,59.72-74.91,77.79-46.91,27.3-96.76,30.17-146.18,10-60.88-24.8-84.1-75.57-86.91-138.19-1.87-43.63,3.52-85.49,28.09-123,29.63-45.17,74.65-66.25,124.82-78.8,36.33-9.08,73.35-12,110.75-13.47,24.34-1,48.48-.93,72.71-1.34,13.11-.23,8.15-11,8.67-16.58,2.55-27.09,4.82-54.3-14.3-77.84-14.63-18-34.46-23.24-55.7-23.47-59.92-.63-119.85-.26-179.77-.17-6.65,0-9.63.3-7.49-9,7.3-31.83,13-64.06,19-96.19,1.07-5.62,3.43-7.5,9.18-7.5,55.24.21,110.49-1,165.71.47,44.67,1.13,88.15,8.6,124.76,37.89,31.5,25.18,47.57,58.72,54.2,97.53,9.23,54.19-2.46,107.09-10.72,160.09s-17.58,105.64-26.21,158.47c-6.82,41.46-15,82.69-18.62,124.62-.39,4.38-3.41,5.83-7.94,5.79-32.15-.19-64.29-.11-96.44,0-4.44,0-6.07-.11-5-6.2C1061.29,1814.17,1064.68,1788.36,1069.06,1758.83Z"/><path class="cls-2" d="M1057.88,1582.07c31,0,31.13,0,23.75,30.37-8.65,35.58-21,69.48-44.65,98-28.27,34.12-94.9,53.69-135.22,22.47-16.43-12.68-23-45.3-14-73.71,13.63-43.32,48.13-60.34,88.34-69.68C1002.92,1583.38,1030.37,1582,1057.88,1582.07Z"/></svg>